<svg width="64" height="64" viewBox="0 0 64 64" fill="none" xmlns="http://www.w3.org/2000/svg">
  <rect width="64" height="64" rx="18" fill="url(#bg)" />
  <rect x="1.5" y="1.5" width="61" height="61" rx="16.5" stroke="url(#stroke)" stroke-opacity="0.55" />
  <rect x="13" y="35" width="7" height="12" rx="3.5" fill="#F8FAFC" fill-opacity="0.94" />
  <rect x="24" y="29" width="7" height="18" rx="3.5" fill="#F8FAFC" fill-opacity="0.74" />
  <rect x="35" y="23" width="7" height="24" rx="3.5" fill="#F8FAFC" fill-opacity="0.88" />
  <rect x="46" y="31" width="6" height="16" rx="3" fill="#F8FAFC" fill-opacity="0.7" />
  <path d="M11 35C15.4 21.8 23.2 15 32 15C40.8 15 48.6 21.8 53 35" stroke="#E2F6FF" stroke-width="4" stroke-linecap="round" />
  <path d="M21 35L24 26.3M32 35V19.8M43 35L40 26.3" stroke="#E2F6FF" stroke-width="3" stroke-linecap="round" />
  <circle cx="48.5" cy="15.5" r="4.5" fill="#F8FAFC" fill-opacity="0.96" />
  <defs>
    <linearGradient id="bg" x1="10" y1="6" x2="56" y2="58" gradientUnits="userSpaceOnUse">
      <stop stop-color="#0EA5E9" />
      <stop offset="0.52" stop-color="#2563EB" />
      <stop offset="1" stop-color="#10B981" />
    </linearGradient>
    <linearGradient id="stroke" x1="8" y1="4" x2="56" y2="60" gradientUnits="userSpaceOnUse">
      <stop stop-color="#F8FAFC" />
      <stop offset="1" stop-color="#D1FAE5" />
    </linearGradient>
  </defs>
</svg>
